# xmcd
#
# Track frame offsets:
#       182
#       11840
#       21700
#       33905
#       45805
#       57725
#       66600
#       79120
#       91142
#       99580
#       109685
#       119660
#       128090
#       138532
#       150155
#       160372
#       173627
#       184410
#       193835
#       203575
#       220435
#       229387
#       241187
#       252450
#
# Disc length: 3516 seconds
#
# Revision: 0
# Processed by: cddbd v1.4PL0 Copyright (c) Steve Scherf et al.
# Submitted via: CD-DA_X-Tractor v0.23
#
DISCID=5c0dba18
DTITLE=Julie London - Lonely Girl - Make Love To Me
DYEAR=1900
DGENRE=
TTITLE0=Lonely Girl
TTITLE1=Fools Rush In
TTITLE2=Moments Like This
TTITLE3=I Lost My Sugar In Salt Lake City
TTITLE4=Its The Talk Of The Town
TTITLE5=When Your Lover Has Gone
TTITLE6=Dont Hide Your Love From Me
TTITLE7=Where Or When
TTITLE8=All Alone
TTITLE9=Mean To Me
TTITLE10=How Deep Is The Ocean
TTITLE11=Remember
TTITLE12=If I Could Be With You
TTITLE13=Its Good To Want You Bad
TTITLE14=Go Slow
TTITLE15=A Room With A View
TTITLE16=The Nearness Of You
TTITLE17=Alone Together
TTITLE18=I Wanna Be Loved
TTITLE19=Snuggled On Your Shoulder
TTITLE20=Youre My Thrill
TTITLE21=Lover Man
TTITLE22=Body And Soul
TTITLE23=Make Love To Me
EXTD=
EXTT0=
EXTT1=
EXTT2=
EXTT3=
EXTT4=
EXTT5=
EXTT6=
EXTT7=
EXTT8=
EXTT9=
EXTT10=
EXTT11=
EXTT12=
EXTT13=
EXTT14=
EXTT15=
EXTT16=
EXTT17=
EXTT18=
EXTT19=
EXTT20=
EXTT21=
EXTT22=
EXTT23=
PLAYORDER=
